<svg width="96" height="96" viewBox="0 0 96 96" version="1.1"
    xmlns="http://www.w3.org/2000/svg"
    xmlns:xlink="http://www.w3.org/1999/xlink" xml:space="preserve"
    xmlns:serif="http://www.serif.com/" style="fill-rule:evenodd;clip-rule:evenodd;stroke-linecap:round;stroke-linejoin:round;">
    <g id="Maskable">
        <rect x="0" y="0" width="96" height="96" style="fill:#292524;"/>
        <g id="Articles">
            <path d="M35.546,62.945l17.436,-0" style="fill:none;fill-rule:nonzero;stroke:#a3e635;stroke-width:4.98px;"/>
            <path d="M35.546,52.982l2.491,-0" style="fill:none;fill-rule:nonzero;stroke:#a3e635;stroke-width:4.98px;"/>
            <path d="M35.546,43.018l7.472,0" style="fill:none;fill-rule:nonzero;stroke:#a3e635;stroke-width:4.98px;"/>
            <path d="M35.546,23.092l23.663,-0l11.208,11.209l0,31.135" style="fill:none;fill-rule:nonzero;stroke:#a3e635;stroke-width:4.98px;"/>
            <path d="M25.583,69.172l-0,-34.871c-0,-2.064 1.672,-3.737 3.736,-3.737l24.289,0c0.396,0 0.776,0.158 1.057,0.438l7.842,7.842c0.28,0.281 0.438,0.661 0.438,1.057l-0,29.271c-0,2.063 -1.673,3.736 -3.736,3.736l-29.89,0c-2.064,0 -3.736,-1.673 -3.736,-3.736Z" style="fill:none;fill-rule:nonzero;stroke:#a3e635;stroke-width:4.98px;"/>
            <path d="M52.982,30.564l-0,8.469c-0,0.825 0.669,1.495 1.494,1.495l8.469,-0" style="fill:none;fill-rule:nonzero;stroke:#a3e635;stroke-width:4.98px;"/>
        </g>
    </g>
</svg>