<svg width="96" height="96" viewBox="0 0 96 96" version="1.1"
    xmlns="http://www.w3.org/2000/svg"
    xmlns:xlink="http://www.w3.org/1999/xlink" xml:space="preserve"
    xmlns:serif="http://www.serif.com/" style="fill-rule:evenodd;clip-rule:evenodd;stroke-linecap:round;stroke-linejoin:round;">
    <g id="Normal">
        <circle cx="48" cy="48" r="48" style="fill:#292524;"/>
        <g id="Articles">
            <path d="M33.001,65.999l20.999,0" style="fill:none;fill-rule:nonzero;stroke:#a3e635;stroke-width:6px;"/>
            <path d="M33.001,54l3,-0" style="fill:none;fill-rule:nonzero;stroke:#a3e635;stroke-width:6px;"/>
            <path d="M33.001,42l8.999,0" style="fill:none;fill-rule:nonzero;stroke:#a3e635;stroke-width:6px;"/>
            <path d="M33.001,18.001l28.498,0l13.5,13.5l-0,37.498" style="fill:none;fill-rule:nonzero;stroke:#a3e635;stroke-width:6px;"/>
            <path d="M21.001,73.499l0,-41.998c0,-2.485 2.015,-4.5 4.5,-4.5l29.253,-0c0.477,-0 0.935,0.19 1.273,0.527l9.445,9.445c0.338,0.338 0.527,0.796 0.527,1.273l0,35.253c0,2.485 -2.015,4.5 -4.5,4.5l-35.998,-0c-2.485,-0 -4.5,-2.015 -4.5,-4.5Z" style="fill:none;fill-rule:nonzero;stroke:#a3e635;stroke-width:6px;"/>
            <path d="M54,27.001l-0,10.199c-0,0.995 0.805,1.8 1.8,1.8l10.199,0" style="fill:none;fill-rule:nonzero;stroke:#a3e635;stroke-width:6px;"/>
        </g>
    </g>
</svg>