<svg width="96" height="96" viewBox="0 0 96 96" version="1.1"
    xmlns="http://www.w3.org/2000/svg"
    xmlns:xlink="http://www.w3.org/1999/xlink" xml:space="preserve"
    xmlns:serif="http://www.serif.com/" style="fill-rule:evenodd;clip-rule:evenodd;stroke-linecap:round;stroke-linejoin:round;">
    <g id="Maskable">
        <rect x="0" y="0" width="96" height="96" style="fill:#292524;"/>
        <g id="Games">
            <path d="M61.52,62.738c6.227,8.717 16.062,2.279 13.699,-6.227c-3.548,-12.776 -5.479,-19.888 -6.483,-23.643c-0.591,-2.209 -2.593,-3.756 -4.879,-3.756l-32.074,-0c-2.285,-0 -4.278,1.556 -4.833,3.773c-2.091,8.341 -3.956,15.659 -6.169,23.626c-2.363,8.506 7.472,14.944 13.699,6.227" style="fill:none;fill-rule:nonzero;stroke:#a3e635;stroke-width:4.98px;"/>
            <path d="M35.366,36.584l0,7.472" style="fill:none;fill-rule:nonzero;stroke:#a3e635;stroke-width:4.98px;"/>
            <path d="M31.63,40.32l7.473,0" style="fill:none;fill-rule:nonzero;stroke:#a3e635;stroke-width:4.98px;"/>
            <circle cx="59.032" cy="44.081" r="2.503" style="fill:#a3e635;"/>
            <circle cx="62.793" cy="40.32" r="2.503" style="fill:#a3e635;"/>
            <circle cx="59.032" cy="36.584" r="2.503" style="fill:#a3e635;"/>
            <circle cx="55.321" cy="40.32" r="2.503" style="fill:#a3e635;"/>
            <circle cx="57.788" cy="54.02" r="4.982" style="fill:none;stroke:#a3e635;stroke-width:5px;stroke-miterlimit:1.5;"/>
            <circle cx="37.857" cy="54.02" r="4.982" style="fill:none;stroke:#a3e635;stroke-width:5px;stroke-miterlimit:1.5;"/>
        </g>
    </g>
</svg>