<svg width="96" height="96" viewBox="0 0 96 96" version="1.1"
    xmlns="http://www.w3.org/2000/svg"
    xmlns:xlink="http://www.w3.org/1999/xlink" xml:space="preserve"
    xmlns:serif="http://www.serif.com/" style="fill-rule:evenodd;clip-rule:evenodd;stroke-linecap:round;stroke-linejoin:round;">
    <g id="Normal">
        <circle cx="48" cy="48" r="48" style="fill:#292524;"/>
        <g id="Games">
            <path d="M64.455,65.937c7.579,10.611 19.55,2.774 16.674,-7.579c-4.319,-15.548 -6.669,-24.205 -7.892,-28.776c-0.719,-2.688 -3.155,-4.571 -5.937,-4.571l-39.037,-0c-2.782,-0 -5.207,1.894 -5.884,4.593c-2.544,10.151 -4.815,19.058 -7.508,28.754c-2.876,10.353 9.095,18.19 16.674,7.579" style="fill:none;fill-rule:nonzero;stroke:#a3e635;stroke-width:6.06px;"/>
            <path d="M32.624,34.106l-0,9.094" style="fill:none;fill-rule:nonzero;stroke:#a3e635;stroke-width:6.06px;"/>
            <path d="M28.076,38.653l9.095,-0" style="fill:none;fill-rule:nonzero;stroke:#a3e635;stroke-width:6.06px;"/>
            <circle cx="61.427" cy="43.231" r="3.046" style="fill:#a3e635;"/>
            <circle cx="66.005" cy="38.653" r="3.046" style="fill:#a3e635;"/>
            <circle cx="61.427" cy="34.106" r="3.046" style="fill:#a3e635;"/>
            <circle cx="56.91" cy="38.653" r="3.046" style="fill:#a3e635;"/>
            <circle cx="59.912" cy="55.327" r="6.063" style="fill:none;stroke:#a3e635;stroke-width:5px;stroke-miterlimit:1.5;"/>
            <circle cx="35.655" cy="55.327" r="6.063" style="fill:none;stroke:#a3e635;stroke-width:5px;stroke-miterlimit:1.5;"/>
        </g>
    </g>
</svg>