<svg width="96" height="96" viewBox="0 0 96 96" version="1.1"
    xmlns="http://www.w3.org/2000/svg"
    xmlns:xlink="http://www.w3.org/1999/xlink" xml:space="preserve"
    xmlns:serif="http://www.serif.com/" style="fill-rule:evenodd;clip-rule:evenodd;stroke-linecap:round;stroke-linejoin:round;">
    <g id="Maskable">
        <rect x="0" y="0" width="96" height="96" style="fill:#292524;"/>
        <g id="Links">
            <path d="M52.982,48c-0,-6.206 -5.772,-12.448 -12.81,-12.448c-0.834,-0 -3.582,-0 -4.27,-0c-7.075,-0 -12.81,5.573 -12.81,12.448c-0,5.924 4.258,10.882 9.963,12.14c0.916,0.202 1.868,0.308 2.847,0.308" style="fill:none;fill-rule:nonzero;stroke:#a3e635;stroke-width:4.98px;"/>
            <path d="M43.018,48c0,6.206 5.772,12.448 12.81,12.448l4.27,0c7.075,0 12.81,-5.573 12.81,-12.448c0,-5.924 -4.258,-10.882 -9.963,-12.14c-0.916,-0.202 -1.868,-0.308 -2.847,-0.308" style="fill:none;fill-rule:nonzero;stroke:#a3e635;stroke-width:4.98px;"/>
        </g>
    </g>
</svg>