<svg width="96" height="96" viewBox="0 0 96 96" version="1.1"
    xmlns="http://www.w3.org/2000/svg"
    xmlns:xlink="http://www.w3.org/1999/xlink" xml:space="preserve"
    xmlns:serif="http://www.serif.com/" style="fill-rule:evenodd;clip-rule:evenodd;stroke-linecap:round;stroke-linejoin:round;stroke-miterlimit:1.5;">
    <g id="Normal">
        <circle cx="48" cy="48" r="48" style="fill:#292524;"/>
        <g id="Romhacking">
            <path d="M74.014,34.126l-0,27.748c-0,2.277 -1.849,4.126 -4.126,4.126l-43.776,0c-2.277,0 -4.126,-1.849 -4.126,-4.126l0,-27.748c0,-2.277 1.849,-4.126 4.126,-4.126l43.776,0c2.277,0 4.126,1.849 4.126,4.126Z" style="fill:none;stroke:#a3e635;stroke-width:6px;"/>
            <path d="M30.016,37.926l6.113,-0l-0,20.364l-4.485,0l0,-16.064l-1.628,0l0,-4.3Z" style="fill:#a3e635;fill-rule:nonzero;"/>
            <path d="M48.691,58.321c-1.556,-0 -2.984,-0.369 -4.285,-1.106c-1.3,-0.737 -2.339,-1.874 -3.117,-3.409c-0.778,-1.536 -1.167,-3.471 -1.167,-5.806c-0,-2.621 0.373,-4.684 1.121,-6.189c0.747,-1.505 1.766,-2.575 3.056,-3.209c1.29,-0.635 2.754,-0.942 4.392,-0.922c1.577,-0.02 3.01,0.343 4.3,1.091c1.29,0.747 2.324,1.883 3.102,3.409c0.779,1.525 1.168,3.466 1.168,5.82c-0,2.437 -0.395,4.418 -1.183,5.944c-0.788,1.525 -1.827,2.636 -3.117,3.332c-1.291,0.697 -2.714,1.045 -4.27,1.045Zm-0.031,-4.27c1.024,0 1.823,-0.271 2.396,-0.814c0.574,-0.542 0.978,-1.284 1.213,-2.226c0.236,-0.942 0.354,-1.987 0.354,-3.133c-0,-1.127 -0.118,-2.13 -0.354,-3.01c-0.235,-0.881 -0.639,-1.582 -1.213,-2.104c-0.573,-0.523 -1.372,-0.784 -2.396,-0.784c-1.003,0 -1.791,0.266 -2.365,0.799c-0.573,0.532 -0.972,1.249 -1.198,2.15c-0.225,0.901 -0.337,1.915 -0.337,3.041c-0,1.126 0.112,2.15 0.337,3.071c0.226,0.922 0.625,1.654 1.198,2.196c0.574,0.543 1.362,0.814 2.365,0.814Z" style="fill:#a3e635;fill-rule:nonzero;"/>
            <path d="M59.871,37.926l6.113,-0l-0,20.364l-4.485,0l0,-16.064l-1.628,0l0,-4.3Z" style="fill:#a3e635;fill-rule:nonzero;"/>
            <path d="M25,30l0,-9" style="fill:none;stroke:#a3e635;stroke-width:6px;"/>
            <path d="M40.079,30l-0,-9" style="fill:none;stroke:#a3e635;stroke-width:6px;"/>
            <path d="M56,30l0,-9" style="fill:none;stroke:#a3e635;stroke-width:6px;"/>
            <path d="M71,30l0,-9" style="fill:none;stroke:#a3e635;stroke-width:6px;"/>
            <path d="M25,75l0,-9" style="fill:none;stroke:#a3e635;stroke-width:6px;"/>
            <path d="M40,75l0,-9" style="fill:none;stroke:#a3e635;stroke-width:6px;"/>
            <path d="M56,75l0,-9" style="fill:none;stroke:#a3e635;stroke-width:6px;"/>
            <path d="M71,75l0,-9" style="fill:none;stroke:#a3e635;stroke-width:6px;"/>
        </g>
    </g>
</svg>