<svg width="512" height="512" viewBox="0 0 512 512" version="1.1"
    xmlns="http://www.w3.org/2000/svg"
    xmlns:xlink="http://www.w3.org/1999/xlink" xml:space="preserve"
    xmlns:serif="http://www.serif.com/" style="fill-rule:evenodd;clip-rule:evenodd;stroke-linejoin:round;stroke-miterlimit:2;">
    <g id="Maskable">
        <rect x="0" y="0" width="512" height="512" style="fill:#292524;"/>
        <path d="M128.97,366.89c-1.061,0 -1.592,-0.53 -1.592,-1.591l0.637,-218.598c-0,-0.849 0.424,-1.273 1.273,-1.273l61.116,-0c19.523,-0 34.961,5.94 46.314,17.819c11.353,11.879 17.03,28.001 17.03,48.365c-0,15.061 -2.971,28.107 -8.913,39.138c-5.942,11.031 -13.687,19.516 -23.237,25.455c-9.549,5.94 -19.947,8.91 -31.194,8.91l-24.192,-0l0,80.184c0,1.061 -0.53,1.591 -1.591,1.591l-35.651,0Zm37.242,-120.277l24.192,0c6.791,0 12.679,-3.235 17.666,-9.705c4.987,-6.47 7.481,-14.902 7.481,-25.296c-0,-8.273 -2.229,-15.061 -6.685,-20.364c-4.456,-5.303 -10.61,-7.955 -18.462,-7.955l-24.192,0.318l0,63.002Z" style="fill:#c1bdbc;fill-rule:nonzero;"/>
        <path d="M328.233,370.072c-11.672,0 -22.229,-2.917 -31.672,-8.75c-9.443,-5.834 -16.924,-13.629 -22.441,-23.387c-5.518,-9.758 -8.276,-20.683 -8.276,-32.774l0.318,-99.276c0,-11.667 2.706,-22.327 8.117,-31.979c5.411,-9.652 12.839,-17.394 22.282,-23.228c9.443,-5.833 20,-8.75 31.672,-8.75c11.671,-0 22.175,2.864 31.513,8.591c9.337,5.728 16.764,13.417 22.281,23.069c5.518,9.652 8.276,20.417 8.276,32.297l0,14.636c0,0.849 -0.424,1.273 -1.273,1.273l-35.651,0c-0.849,0 -1.273,-0.424 -1.273,-1.273l0,-14.636c0,-7.001 -2.281,-13.046 -6.844,-18.137c-4.562,-5.091 -10.239,-7.637 -17.029,-7.637c-7.64,-0 -13.475,2.599 -17.507,7.796c-4.032,5.197 -6.048,11.189 -6.048,17.978l-0,99.276c-0,7.849 2.281,14.212 6.843,19.091c4.563,4.879 10.133,7.319 16.712,7.319c6.79,-0 12.467,-2.705 17.029,-8.114c4.563,-5.409 6.844,-11.508 6.844,-18.296l0,-14.637c0,-0.849 0.424,-1.273 1.273,-1.273l35.969,0c0.849,0 1.274,0.424 1.274,1.273l-0,14.637c-0,12.091 -2.812,23.016 -8.436,32.774c-5.623,9.758 -13.103,17.553 -22.44,23.387c-9.338,5.833 -19.842,8.75 -31.513,8.75Z" style="fill:#c1bdbc;fill-rule:nonzero;"/>
    </g>
</svg>