<svg width="512" height="512" viewBox="0 0 512 512" version="1.1"
    xmlns="http://www.w3.org/2000/svg"
    xmlns:xlink="http://www.w3.org/1999/xlink" xml:space="preserve"
    xmlns:serif="http://www.serif.com/" style="fill-rule:evenodd;clip-rule:evenodd;stroke-linejoin:round;stroke-miterlimit:2;">
    <g id="Normal">
        <circle cx="256" cy="256" r="256" style="fill:#292524;"/>
        <path d="M96.995,395.011c-1.33,0 -1.995,-0.665 -1.995,-1.994l0.798,-274.034c0,-1.063 0.532,-1.595 1.596,-1.595l76.614,-0c24.474,-0 43.828,7.446 58.06,22.337c14.232,14.892 21.348,35.102 21.348,60.631c-0,18.88 -3.724,35.234 -11.173,49.062c-7.449,13.828 -17.158,24.465 -29.129,31.911c-11.971,7.446 -25.006,11.169 -39.106,11.169l-30.326,-0l-0,100.519c-0,1.329 -0.665,1.994 -1.995,1.994l-44.692,0Zm46.687,-150.778l30.326,-0c8.513,-0 15.895,-4.055 22.147,-12.166c6.251,-8.111 9.377,-18.681 9.377,-31.711c0,-10.371 -2.793,-18.881 -8.38,-25.529c-5.586,-6.648 -13.301,-9.972 -23.144,-9.972l-30.326,0.399l-0,78.979Z" style="fill:#c1bdbc;fill-rule:nonzero;"/>
        <path d="M346.79,399c-14.632,-0 -27.866,-3.656 -39.704,-10.969c-11.838,-7.313 -21.215,-17.086 -28.132,-29.318c-6.917,-12.233 -10.375,-25.928 -10.375,-41.085l0.399,-124.452c0,-14.626 3.392,-27.989 10.176,-40.088c6.783,-12.1 16.094,-21.806 27.932,-29.119c11.838,-7.313 25.072,-10.969 39.704,-10.969c14.631,0 27.799,3.59 39.504,10.77c11.705,7.18 21.016,16.819 27.932,28.919c6.917,12.099 10.375,25.595 10.375,40.487l-0,18.348c-0,1.064 -0.532,1.596 -1.596,1.596l-44.692,-0c-1.064,-0 -1.596,-0.532 -1.596,-1.596l0,-18.348c0,-8.776 -2.86,-16.355 -8.579,-22.737c-5.72,-6.382 -12.836,-9.573 -21.348,-9.573c-9.577,0 -16.893,3.258 -21.947,9.773c-5.055,6.515 -7.582,14.027 -7.582,22.537l0,124.452c0,9.839 2.86,17.816 8.579,23.933c5.72,6.116 12.703,9.174 20.95,9.174c8.512,0 15.628,-3.391 21.348,-10.172c5.719,-6.781 8.579,-14.426 8.579,-22.935l0,-18.349c0,-1.064 0.532,-1.596 1.596,-1.596l45.091,0c1.064,0 1.596,0.532 1.596,1.596l0,18.349c0,15.157 -3.525,28.852 -10.574,41.085c-7.05,12.232 -16.427,22.005 -28.132,29.318c-11.705,7.313 -24.873,10.969 -39.504,10.969Z" style="fill:#c1bdbc;fill-rule:nonzero;"/>
    </g>
</svg>